<?xml version="1.0" encoding="utf-8"?>
<svg version="1.1" xmlns:xlink="http://www.w3.org/1999/xlink" width="60px" height="148px" xmlns="http://www.w3.org/2000/svg">
  <defs>
    <mask fill="white" id="clip272">
      <path d="M 60 74.6511402319012  C 60 74.4316399925505  59.9924968434441 74.2145943568577  59.9776578839063 74.0000032900938  C 59.9924966892499 73.7854101035302  60 73.5683622628652  60 73.3488597680988  C 60 30.9924759583516  30 0  30 0  C 30 0  0 30.9924759583516  0 73.3488597680988  C 0 73.5683622628652  0.00750331075005011 73.7854101035302  0.0223416586842421 74.0000033248223  C 0.00750315655593282 74.2145943568574  0 74.4316399925503  0 74.6511402319012  C 0 117.007524041648  30 148  30 148  C 30 148  60 117.007524041648  60 74.6511402319012  Z " fill-rule="evenodd" />
    </mask>
  </defs>
  <g transform="matrix(1 0 0 1 -920 20 )">
    <path d="M 60 74.6511402319012  C 60 74.4316399925505  59.9924968434441 74.2145943568577  59.9776578839063 74.0000032900938  C 59.9924966892499 73.7854101035302  60 73.5683622628652  60 73.3488597680988  C 60 30.9924759583516  30 0  30 0  C 30 0  0 30.9924759583516  0 73.3488597680988  C 0 73.5683622628652  0.00750331075005011 73.7854101035302  0.0223416586842421 74.0000033248223  C 0.00750315655593282 74.2145943568574  0 74.4316399925503  0 74.6511402319012  C 0 117.007524041648  30 148  30 148  C 30 148  60 117.007524041648  60 74.6511402319012  Z " fill-rule="nonzero" fill="#fffefe" stroke="none" transform="matrix(1 0 0 1 920 -20 )" />
    <path d="M 60 74.6511402319012  C 60 74.4316399925505  59.9924968434441 74.2145943568577  59.9776578839063 74.0000032900938  C 59.9924966892499 73.7854101035302  60 73.5683622628652  60 73.3488597680988  C 60 30.9924759583516  30 0  30 0  C 30 0  0 30.9924759583516  0 73.3488597680988  C 0 73.5683622628652  0.00750331075005011 73.7854101035302  0.0223416586842421 74.0000033248223  C 0.00750315655593282 74.2145943568574  0 74.4316399925503  0 74.6511402319012  C 0 117.007524041648  30 148  30 148  C 30 148  60 117.007524041648  60 74.6511402319012  Z " stroke-width="4" stroke="#333333" fill="none" transform="matrix(1 0 0 1 920 -20 )" mask="url(#clip272)" />
  </g>
</svg>