<?xml version="1.0" encoding="utf-8"?>
<svg version="1.1" xmlns:xlink="http://www.w3.org/1999/xlink" width="46px" height="128px" xmlns="http://www.w3.org/2000/svg">
  <defs>
    <mask fill="white" id="clip273">
      <path d="M 21.99568288854 63.3747933256014  C 21.99568288854 63.1884462900703  21.99568288854 63.3361014546688  21.99568288854 62.8117189716263  C 21.99568288854 62.2873364885838  21.99568288854 62.455557586884  21.99568288854 62.269208636594  C 21.99568288854 26.3103113610821  0.176319483439065 -0.188100855186133  0.0414989939637838 -0.00107688929241895  C -0.0933214955114972 0.185947076601295  22.0908524232507 32.2219679633867  20.1469534050179 67.4210526315789  C 18.2030543867851 102.620137299771  0.0414989939637838 123.948547288703  0.0414989939637838 123.948547288703  C 0.0414989939637838 123.948547288703  13.6714670744589 107.702921365673  19.594982078853 84.2631578947368  C 21.3055921780373 77.4941540032754  21.99568288854 71.4322526939563  21.99568288854 63.3747933256014  Z " fill-rule="evenodd" />
    </mask>
    <filter x="930px" y="31px" width="46px" height="128px" filterUnits="userSpaceOnUse" id="filter274">
      <feOffset dx="-22" dy="0" in="SourceAlpha" result="shadowOffsetInner" />
      <feGaussianBlur stdDeviation="1" in="shadowOffsetInner" result="shadowGaussian" />
      <feComposite in2="shadowGaussian" operator="atop" in="SourceAlpha" result="shadowComposite" />
      <feColorMatrix type="matrix" values="0 0 0 0 0  0 0 0 0 0  0 0 0 0 0  0 0 0 0.290196078431373 0  " in="shadowComposite" />
    </filter>
    <g id="widget275">
      <path d="M 21.99568288854 63.3747933256014  C 21.99568288854 63.1884462900703  21.99568288854 63.3361014546688  21.99568288854 62.8117189716263  C 21.99568288854 62.2873364885838  21.99568288854 62.455557586884  21.99568288854 62.269208636594  C 21.99568288854 26.3103113610821  0.176319483439065 -0.188100855186133  0.0414989939637838 -0.00107688929241895  C -0.0933214955114972 0.185947076601295  22.0908524232507 32.2219679633867  20.1469534050179 67.4210526315789  C 18.2030543867851 102.620137299771  0.0414989939637838 123.948547288703  0.0414989939637838 123.948547288703  C 0.0414989939637838 123.948547288703  13.6714670744589 107.702921365673  19.594982078853 84.2631578947368  C 21.3055921780373 77.4941540032754  21.99568288854 71.4322526939563  21.99568288854 63.3747933256014  Z " fill-rule="nonzero" fill="#2a2a2a" stroke="none" fill-opacity="0" transform="matrix(1 0 0 1 954 33 )" />
      <path d="M 21.99568288854 63.3747933256014  C 21.99568288854 63.1884462900703  21.99568288854 63.3361014546688  21.99568288854 62.8117189716263  C 21.99568288854 62.2873364885838  21.99568288854 62.455557586884  21.99568288854 62.269208636594  C 21.99568288854 26.3103113610821  0.176319483439065 -0.188100855186133  0.0414989939637838 -0.00107688929241895  C -0.0933214955114972 0.185947076601295  22.0908524232507 32.2219679633867  20.1469534050179 67.4210526315789  C 18.2030543867851 102.620137299771  0.0414989939637838 123.948547288703  0.0414989939637838 123.948547288703  C 0.0414989939637838 123.948547288703  13.6714670744589 107.702921365673  19.594982078853 84.2631578947368  C 21.3055921780373 77.4941540032754  21.99568288854 71.4322526939563  21.99568288854 63.3747933256014  Z " stroke-width="24" stroke="#ffffff" fill="none" transform="matrix(1 0 0 1 954 33 )" mask="url(#clip273)" />
    </g>
  </defs>
  <g transform="matrix(1 0 0 1 -930 -31 )">
    <use xlink:href="#widget275" filter="url(#filter274)" />
    <use xlink:href="#widget275" />
  </g>
</svg>