<?xml version="1.0" encoding="utf-8"?>
<svg version="1.1" xmlns:xlink="http://www.w3.org/1999/xlink" width="522px" height="1193px" xmlns="http://www.w3.org/2000/svg">
  <g transform="matrix(1 0 0 1 -689 276 )">
    <path d="M 521.5 602.23991902834  C 521.5 600.473535345457  521.5 601.600052952727  521.5 597.000026476363  C 521.5 592.4  521.5 593.526482804544  521.5 591.76008097166  C 521.5 250.905668016194  292.199604743083 3.14031620553374  261 1.5  C 229.800395256917 -0.140316205533736  0.5 250.905668016194  0.5 591.76008097166  C 0.5 593.526482804544  0.5 592.400026476363  0.5 597.000026476363  C 0.5 601.600026476363  0.5 600.473535345456  0.5 602.23991902834  C 0.5 943.094331983806  230.56976744186 1192.31395348837  261 1192.5  C 291.430232558139 1192.68604651163  521.5 943.094331983806  521.5 602.23991902834  Z " fill-rule="nonzero" fill="#ffffff" stroke="none" fill-opacity="0" transform="matrix(1 0 0 1 689 -276 )" />
  </g>
</svg>