<?xml version="1.0" encoding="utf-8"?>
<svg version="1.1" xmlns:xlink="http://www.w3.org/1999/xlink" width="529px" height="1207px" xmlns="http://www.w3.org/2000/svg">
  <defs>
    <mask fill="white" id="clip276">
      <path d="M 528.5 608.301513374601  C 528.5 606.514366155563  528.5 607.654125783405  528.5 603.000026787588  C 528.5 598.345927791772  528.5 599.485652207788  528.5 597.698486625399  C 528.5 252.837388714957  307.722513089005 0.5  264.5 0.5  C 221.277486910995 0.5  0.5 252.837388714957  0.5 597.698486625399  C 0.5 599.485652207788  0.5 598.34595457936  0.5 603.000026787588  C 0.5 607.654098995817  0.5 606.514366155562  0.5 608.301513374601  C 0.5 953.162611285042  219.764397905759 1205.0942408377  264.5 1205.5  C 309.235602094241 1205.9057591623  528.5 953.162611285042  528.5 608.301513374601  Z " fill-rule="evenodd" />
    </mask>
  </defs>
  <g transform="matrix(1 0 0 1 -685 283 )">
    <path d="M 528.5 608.301513374601  C 528.5 606.514366155563  528.5 607.654125783405  528.5 603.000026787588  C 528.5 598.345927791772  528.5 599.485652207788  528.5 597.698486625399  C 528.5 252.837388714957  307.722513089005 0.5  264.5 0.5  C 221.277486910995 0.5  0.5 252.837388714957  0.5 597.698486625399  C 0.5 599.485652207788  0.5 598.34595457936  0.5 603.000026787588  C 0.5 607.654098995817  0.5 606.514366155562  0.5 608.301513374601  C 0.5 953.162611285042  219.764397905759 1205.0942408377  264.5 1205.5  C 309.235602094241 1205.9057591623  528.5 953.162611285042  528.5 608.301513374601  Z " fill-rule="nonzero" fill="#ffffff" stroke="none" transform="matrix(1 0 0 1 685 -283 )" />
    <path d="M 528.5 608.301513374601  C 528.5 606.514366155563  528.5 607.654125783405  528.5 603.000026787588  C 528.5 598.345927791772  528.5 599.485652207788  528.5 597.698486625399  C 528.5 252.837388714957  307.722513089005 0.5  264.5 0.5  C 221.277486910995 0.5  0.5 252.837388714957  0.5 597.698486625399  C 0.5 599.485652207788  0.5 598.34595457936  0.5 603.000026787588  C 0.5 607.654098995817  0.5 606.514366155562  0.5 608.301513374601  C 0.5 953.162611285042  219.764397905759 1205.0942408377  264.5 1205.5  C 309.235602094241 1205.9057591623  528.5 953.162611285042  528.5 608.301513374601  Z " stroke-width="24" stroke="#2a2a2a" fill="none" transform="matrix(1 0 0 1 685 -283 )" mask="url(#clip276)" />
  </g>
</svg>