<?xml version="1.0" encoding="utf-8"?>
<svg version="1.1" xmlns:xlink="http://www.w3.org/1999/xlink" width="1400px" height="918px" xmlns="http://www.w3.org/2000/svg">
  <g>
    <path d="M 0 918  L 0 0  L 1400 0  L 1400 918  L 0 918  Z M 698.702886221561 176  C 354.127980093617 176  103.14089347079 394.845360824742  102 439.5  C 100.85910652921 484.154639175258  354.127980093617 703  698.702886221561 703  C 700.488550330873 703  699.349736561643 703  703.999973234642 703  C 708.650209907641 703  707.511431321015 703  709.29711377844 703  C 1053.87201990638 703  1304.71052631579 482.289473684211  1306 439.5  C 1307.28947368421 396.710526315789  1053.87201990638 176  709.29711377844 176  C 707.511431321015 176  708.650183142283 176  703.999973234642 176  C 699.349763327001 176  700.488550330875 176  698.702886221561 176  Z " fill-rule="nonzero" fill="#ffffff" stroke="none" />
  </g>
</svg>