<?xml version="1.0" encoding="utf-8"?>
<svg version="1.1" xmlns:xlink="http://www.w3.org/1999/xlink" width="239px" height="1053px" xmlns="http://www.w3.org/2000/svg">
  <defs>
    <mask fill="white" id="clip277">
      <path d="M 192.962127158556 526.930741279799  C 192.962127158556 525.381355847278  192.962127158556 526.609037094868  192.962127158556 522.249050481828  C 192.962127158556 517.889063868789  192.962127158556 519.28774090385  192.962127158556 517.738339551036  C 192.962127158556 218.757508171578  1.54680274107907 -1.56396759432987  0.364059356136831 -0.0089538133909995  C -0.818684028805407 1.54605996754787  193.797023531245 267.91007234074  176.743727598566 560.573429541596  C 159.690431665888 853.236786742452  0.364059356136831 1030.57219560204  0.364059356136831 1030.57219560204  C 0.364059356136831 1030.57219560204  119.936052062298 895.497676838781  171.901433691756 700.607385398981  C 186.908149561873 644.326393365943  192.962127158556 593.924617157007  192.962127158556 526.930741279799  Z " fill-rule="evenodd" />
    </mask>
    <filter x="585px" y="129px" width="239px" height="1053px" filterUnits="userSpaceOnUse" id="filter278">
      <feOffset dx="-35" dy="0" in="SourceAlpha" result="shadowOffsetInner" />
      <feGaussianBlur stdDeviation="5.5" in="shadowOffsetInner" result="shadowGaussian" />
      <feComposite in2="shadowGaussian" operator="atop" in="SourceAlpha" result="shadowComposite" />
      <feColorMatrix type="matrix" values="0 0 0 0 0  0 0 0 0 0  0 0 0 0 0  0 0 0 0.164705882352941 0  " in="shadowComposite" />
    </filter>
    <g id="widget279">
      <path d="M 192.962127158556 526.930741279799  C 192.962127158556 525.381355847278  192.962127158556 526.609037094868  192.962127158556 522.249050481828  C 192.962127158556 517.889063868789  192.962127158556 519.28774090385  192.962127158556 517.738339551036  C 192.962127158556 218.757508171578  1.54680274107907 -1.56396759432987  0.364059356136831 -0.0089538133909995  C -0.818684028805407 1.54605996754787  193.797023531245 267.91007234074  176.743727598566 560.573429541596  C 159.690431665888 853.236786742452  0.364059356136831 1030.57219560204  0.364059356136831 1030.57219560204  C 0.364059356136831 1030.57219560204  119.936052062298 895.497676838781  171.901433691756 700.607385398981  C 186.908149561873 644.326393365943  192.962127158556 593.924617157007  192.962127158556 526.930741279799  Z " fill-rule="nonzero" fill="#2a2a2a" stroke="none" fill-opacity="0" transform="matrix(1 0 0 1 631 140 )" />
      <path d="M 192.962127158556 526.930741279799  C 192.962127158556 525.381355847278  192.962127158556 526.609037094868  192.962127158556 522.249050481828  C 192.962127158556 517.889063868789  192.962127158556 519.28774090385  192.962127158556 517.738339551036  C 192.962127158556 218.757508171578  1.54680274107907 -1.56396759432987  0.364059356136831 -0.0089538133909995  C -0.818684028805407 1.54605996754787  193.797023531245 267.91007234074  176.743727598566 560.573429541596  C 159.690431665888 853.236786742452  0.364059356136831 1030.57219560204  0.364059356136831 1030.57219560204  C 0.364059356136831 1030.57219560204  119.936052062298 895.497676838781  171.901433691756 700.607385398981  C 186.908149561873 644.326393365943  192.962127158556 593.924617157007  192.962127158556 526.930741279799  Z " stroke-width="24" stroke="#ffffff" fill="none" transform="matrix(1 0 0 1 631 140 )" mask="url(#clip277)" />
    </g>
  </defs>
  <g transform="matrix(1 0 0 1 -585 -129 )">
    <use xlink:href="#widget279" filter="url(#filter278)" />
    <use xlink:href="#widget279" />
  </g>
</svg>