<?xml version="1.0" encoding="utf-8"?>
<svg version="1.1" xmlns:xlink="http://www.w3.org/1999/xlink" width="75px" height="83px" xmlns="http://www.w3.org/2000/svg">
  <g transform="matrix(1 0 0 1 -291 -442 )">
    <path d="M 0.183966783775148 0.00306005355093575  C 0.183966783775148 71.4553104679332  0.183966783775148 72  0.183966783775148 72  L 57.8909826477387 72  " stroke-width="2" stroke-dasharray="34,16" stroke="#797979" fill="none" transform="matrix(1 0 0 1 292 443 )" />
    <path d="M 60.3909820636714 68.5  C 58.4579854392637 68.5  56.8909820636714 70.0670033755922  56.8909820636714 72  C 56.8909820636714 73.9329966244078  58.4579854392637 75.5  60.3909820636714 75.5  C 62.3239786880792 75.5  63.8909820636714 73.9329966244078  63.8909820636714 72  C 63.8909820636714 70.0670033755922  62.3239786880792 68.5  60.3909820636714 68.5  Z M 60.3909820636714 70.5  C 61.2194091884176 70.5  61.8909820636714 71.1715728752538  61.8909820636714 72  C 61.8909820636714 72.8284271247462  61.2194091884176 73.5  60.3909820636714 73.5  C 59.5625549389252 73.5  58.8909820636714 72.8284271247462  58.8909820636714 72  C 58.8909820636714 71.1715728752538  59.5625549389252 70.5  60.3909820636714 70.5  Z " fill-rule="nonzero" fill="#797979" stroke="none" transform="matrix(1 0 0 1 292 443 )" />
  </g>
</svg>