<?xml version="1.0" encoding="utf-8"?>
<svg version="1.1" xmlns:xlink="http://www.w3.org/1999/xlink" width="21px" height="92px" xmlns="http://www.w3.org/2000/svg">
  <g transform="matrix(1 0 0 1 -150 -318 )">
    <path d="M 0.5 0  L 0.5 75.0000000129317  " stroke-width="2" stroke-dasharray="34,16" stroke="#797979" fill="none" transform="matrix(1 0 0 1 160 319 )" />
    <path d="M 0.5 73.9999984590927  C -1.43299662440778 73.9999984590927  -3 75.5670018346849  -3 77.4999984590927  C -3 79.4329950835005  -1.43299662440778 80.9999984590927  0.5 80.9999984590927  C 2.43299662440778 80.9999984590927  4 79.4329950835005  4 77.4999984590927  C 4 75.5670018346849  2.43299662440778 73.9999984590927  0.5 73.9999984590927  Z M 0.5 75.9999984590927  C 1.32842712474619 75.9999984590927  2 76.6715713343465  2 77.4999984590927  C 2 78.3284255838389  1.32842712474619 78.9999984590927  0.5 78.9999984590927  C -0.32842712474619 78.9999984590927  -1 78.3284255838389  -1 77.4999984590927  C -1 76.6715713343465  -0.32842712474619 75.9999984590927  0.5 75.9999984590927  Z " fill-rule="nonzero" fill="#797979" stroke="none" transform="matrix(1 0 0 1 160 319 )" />
  </g>
</svg>