<?xml version="1.0" encoding="utf-8"?>
<svg version="1.1" xmlns:xlink="http://www.w3.org/1999/xlink" width="231px" height="87px" xmlns="http://www.w3.org/2000/svg">
  <g transform="matrix(1 0 0 1 -303 -912 )">
    <path d="M 0.63238581922707 0.00323005652598773  C 0.63238581922707 75.4250499383739  0.63238581922707 76  0.63238581922707 76  L 213.625252500836 76  " stroke-width="2" stroke-dasharray="34,16" stroke="#797979" fill="none" transform="matrix(1 0 0 1 304 913 )" />
    <path d="M 216.125252840494 72.5  C 214.192256216086 72.5  212.625252840494 74.0670033755922  212.625252840494 76  C 212.625252840494 77.9329966244078  214.192256216086 79.5  216.125252840494 79.5  C 218.058249464901 79.5  219.625252840494 77.9329966244078  219.625252840494 76  C 219.625252840494 74.0670033755922  218.058249464901 72.5  216.125252840494 72.5  Z M 216.125252840494 74.5  C 216.95367996524 74.5  217.625252840494 75.1715728752538  217.625252840494 76  C 217.625252840494 76.8284271247462  216.95367996524 77.5  216.125252840494 77.5  C 215.296825715747 77.5  214.625252840494 76.8284271247462  214.625252840494 76  C 214.625252840494 75.1715728752538  215.296825715747 74.5  216.125252840494 74.5  Z " fill-rule="nonzero" fill="#797979" stroke="none" transform="matrix(1 0 0 1 304 913 )" />
  </g>
</svg>