<?xml version="1.0" encoding="utf-8"?>
<svg version="1.1" xmlns:xlink="http://www.w3.org/1999/xlink" width="122px" height="231px" xmlns="http://www.w3.org/2000/svg">
  <g transform="matrix(1 0 0 1 -358 -429 )">
    <path d="M 0.31906739061002 0.00935016362785498  C 0.31906739061002 218.33567087424  0.31906739061002 219  0.31906739061002 219  L 104.810921233923 219  " stroke-width="2" stroke-dasharray="34,16" stroke="#797979" fill="none" transform="matrix(1 0 0 1 359 430 )" />
    <path d="M 107.310921519433 215.5  C 105.377924895026 215.5  103.810921519433 217.067003375592  103.810921519433 219  C 103.810921519433 220.932996624408  105.377924895026 222.5  107.310921519433 222.5  C 109.243918143841 222.5  110.810921519433 220.932996624408  110.810921519433 219  C 110.810921519433 217.067003375592  109.243918143841 215.5  107.310921519433 215.5  Z M 107.310921519433 217.5  C 108.13934864418 217.5  108.810921519433 218.171572875254  108.810921519433 219  C 108.810921519433 219.828427124746  108.13934864418 220.5  107.310921519433 220.5  C 106.482494394687 220.5  105.810921519433 219.828427124746  105.810921519433 219  C 105.810921519433 218.171572875254  106.482494394687 217.5  107.310921519433 217.5  Z " fill-rule="nonzero" fill="#797979" stroke="none" transform="matrix(1 0 0 1 359 430 )" />
  </g>
</svg>