<?xml version="1.0" encoding="utf-8"?>
<svg version="1.1" xmlns:xlink="http://www.w3.org/1999/xlink" width="21px" height="98px" xmlns="http://www.w3.org/2000/svg">
  <g transform="matrix(1 0 0 1 -149 -680 )">
    <path d="M 0.5 0  L 0.5 81.0000000068471  " stroke-width="2" stroke-dasharray="34,16" stroke="#797979" fill="none" transform="matrix(1 0 0 1 159 681 )" />
    <path d="M 0.5 79.9999999977092  C -1.43299662440778 79.9999999977092  -3 81.5670033733014  -3 83.4999999977092  C -3 85.4329966221169  -1.43299662440778 86.9999999977092  0.5 86.9999999977092  C 2.43299662440778 86.9999999977092  4 85.4329966221169  4 83.4999999977092  C 4 81.5670033733014  2.43299662440778 79.9999999977092  0.5 79.9999999977092  Z M 0.5 81.9999999977092  C 1.32842712474619 81.9999999977092  2 82.671572872963  2 83.4999999977092  C 2 84.3284271224554  1.32842712474619 84.9999999977092  0.5 84.9999999977092  C -0.32842712474619 84.9999999977092  -1 84.3284271224554  -1 83.4999999977092  C -1 82.671572872963  -0.32842712474619 81.9999999977092  0.5 81.9999999977092  Z " fill-rule="nonzero" fill="#797979" stroke="none" transform="matrix(1 0 0 1 159 681 )" />
  </g>
</svg>