<?xml version="1.0" encoding="utf-8"?>
<svg version="1.1" xmlns:xlink="http://www.w3.org/1999/xlink" width="24px" height="24.0000000101777px" preserveAspectRatio="xMidYMin meet" viewBox="149 1135.99999998982  22 24.0000000101777" xmlns="http://www.w3.org/2000/svg">
  <g transform="matrix(0 1 -1 0 1307.99999999491 987.999999994911 )">
    <path d="M 202 1103  A 3.5 3.5 0 0 0 198.5 1106.5 A 3.5 3.5 0 0 0 202 1110 A 3.5 3.5 0 0 0 205.5 1106.5 A 3.5 3.5 0 0 0 202 1103 Z M 202 1105  A 1.5 1.5 0 0 1 203.5 1106.5 A 1.5 1.5 0 0 1 202 1108 A 1.5 1.5 0 0 1 200.5 1106.5 A 1.5 1.5 0 0 1 202 1105 Z " fill-rule="nonzero" fill="#797979" stroke="none" transform="matrix(6.12303176911189E-17 1 -1 6.12303176911189E-17 1266.5 947.5 )" />
    <path d="M 114.5 1106.5  L 199.5 1106.5  " stroke-width="2" stroke-dasharray="34,16" stroke="#797979" fill="none" transform="matrix(6.12303176911189E-17 1 -1 6.12303176911189E-17 1266.5 947.5 )" />
  </g>
</svg>