<?xml version="1.0" encoding="utf-8"?>
<svg version="1.1" xmlns:xlink="http://www.w3.org/1999/xlink" width="102px" height="22px" xmlns="http://www.w3.org/2000/svg">
  <g transform="matrix(1 0 0 1 -113 -1096 )">
    <path d="M 201.5 1103.5  A 3.5 3.5 0 0 0 198 1107 A 3.5 3.5 0 0 0 201.5 1110.5 A 3.5 3.5 0 0 0 205 1107 A 3.5 3.5 0 0 0 201.5 1103.5 Z M 201.5 1105.5  A 1.5 1.5 0 0 1 203 1107 A 1.5 1.5 0 0 1 201.5 1108.5 A 1.5 1.5 0 0 1 200 1107 A 1.5 1.5 0 0 1 201.5 1105.5 Z " fill-rule="nonzero" fill="#797979" stroke="none" />
    <path d="M 114 1107  L 199 1107  " stroke-width="2" stroke-dasharray="34,16" stroke="#797979" fill="none" />
  </g>
</svg>