<?xml version="1.0" encoding="utf-8"?>
<svg version="1.1" xmlns:xlink="http://www.w3.org/1999/xlink" width="4px" height="4px" preserveAspectRatio="xMinYMid meet" viewBox="392 907  4 2" xmlns="http://www.w3.org/2000/svg">
  <path d="M 521.5 903.5  A 3.5 3.5 0 0 0 518 907 A 3.5 3.5 0 0 0 521.5 910.5 A 3.5 3.5 0 0 0 525 907 A 3.5 3.5 0 0 0 521.5 903.5 Z M 521.5 905.5  A 1.5 1.5 0 0 1 523 907 A 1.5 1.5 0 0 1 521.5 908.5 A 1.5 1.5 0 0 1 520 907 A 1.5 1.5 0 0 1 521.5 905.5 Z " fill-rule="nonzero" fill="#797979" stroke="none" />
  <path d="M 394 907  L 519 907  " stroke-width="2" stroke-dasharray="34,16" stroke="#797979" fill="none" />
</svg>