<?xml version="1.0" encoding="utf-8"?>
<svg version="1.1" xmlns:xlink="http://www.w3.org/1999/xlink" width="26px" height="22.00000004959px" preserveAspectRatio="xMinYMid meet" viewBox="658 1266.99999995041  26 20.00000004959" xmlns="http://www.w3.org/2000/svg">
  <g transform="matrix(0 1 -1 0 1947.9999999752 605.999999975205 )">
    <path d="M 715.5 1229.5  A 3.5 3.5 0 0 0 712 1233 A 3.5 3.5 0 0 0 715.5 1236.5 A 3.5 3.5 0 0 0 719 1233 A 3.5 3.5 0 0 0 715.5 1229.5 Z M 715.5 1231.5  A 1.5 1.5 0 0 1 717 1233 A 1.5 1.5 0 0 1 715.5 1234.5 A 1.5 1.5 0 0 1 714 1233 A 1.5 1.5 0 0 1 715.5 1231.5 Z " fill-rule="nonzero" fill="#797979" stroke="none" transform="matrix(6.12303176911189E-17 1 -1 6.12303176911189E-17 1904 562 )" />
    <path d="M 623 1233  L 713 1233  " stroke-width="2" stroke-dasharray="34,16" stroke="#797979" fill="none" transform="matrix(6.12303176911189E-17 1 -1 6.12303176911189E-17 1904 562 )" />
  </g>
</svg>