<?xml version="1.0" encoding="utf-8"?>
<svg version="1.1" xmlns:xlink="http://www.w3.org/1999/xlink" width="26px" height="24.0000000142877px" preserveAspectRatio="xMinYMid meet" viewBox="146 1516.99999998571  26 22.0000000142877" xmlns="http://www.w3.org/2000/svg">
  <g transform="matrix(0 1 -1 0 1686.99999999286 1368.99999999286 )">
    <path d="M 201.5 1482.5  A 3.5 3.5 0 0 0 198 1486 A 3.5 3.5 0 0 0 201.5 1489.5 A 3.5 3.5 0 0 0 205 1486 A 3.5 3.5 0 0 0 201.5 1482.5 Z M 201.5 1484.5  A 1.5 1.5 0 0 1 203 1486 A 1.5 1.5 0 0 1 201.5 1487.5 A 1.5 1.5 0 0 1 200 1486 A 1.5 1.5 0 0 1 201.5 1484.5 Z " fill-rule="nonzero" fill="#797979" stroke="none" transform="matrix(6.12303176911189E-17 1 -1 6.12303176911189E-17 1645 1327 )" />
    <path d="M 113 1486  L 199 1486  " stroke-width="2" stroke-dasharray="34,16" stroke="#797979" fill="none" transform="matrix(6.12303176911189E-17 1 -1 6.12303176911189E-17 1645 1327 )" />
  </g>
</svg>