<?xml version="1.0" encoding="utf-8"?>
<svg version="1.1" xmlns:xlink="http://www.w3.org/1999/xlink" width="172px" height="4px" preserveAspectRatio="xMinYMid meet" viewBox="1262 1167  172 2" xmlns="http://www.w3.org/2000/svg">
  <g transform="matrix(0 -1 1 0 180 2516 )">
    <path d="M 1427.5 1164.5  A 3.5 3.5 0 0 0 1424 1168 A 3.5 3.5 0 0 0 1427.5 1171.5 A 3.5 3.5 0 0 0 1431 1168 A 3.5 3.5 0 0 0 1427.5 1164.5 Z M 1427.5 1166.5  A 1.5 1.5 0 0 1 1429 1168 A 1.5 1.5 0 0 1 1427.5 1169.5 A 1.5 1.5 0 0 1 1426 1168 A 1.5 1.5 0 0 1 1427.5 1166.5 Z " fill-rule="nonzero" fill="#797979" stroke="none" transform="matrix(6.12303176911189E-17 1 -1 6.12303176911189E-17 2516 -180 )" />
    <path d="M 1265 1168  L 1425 1168  " stroke-width="2" stroke-dasharray="34,16" stroke="#797979" fill="none" transform="matrix(6.12303176911189E-17 1 -1 6.12303176911189E-17 2516 -180 )" />
  </g>
</svg>