<?xml version="1.0" encoding="utf-8"?>
<svg version="1.1" xmlns:xlink="http://www.w3.org/1999/xlink" width="194px" height="4px" preserveAspectRatio="xMinYMid meet" viewBox="574 1473  194 2" xmlns="http://www.w3.org/2000/svg">
  <g transform="matrix(0 -1 1 0 -803 2145 )">
    <path d="M 762.5 1470.5  A 3.5 3.5 0 0 0 759 1474 A 3.5 3.5 0 0 0 762.5 1477.5 A 3.5 3.5 0 0 0 766 1474 A 3.5 3.5 0 0 0 762.5 1470.5 Z M 762.5 1472.5  A 1.5 1.5 0 0 1 764 1474 A 1.5 1.5 0 0 1 762.5 1475.5 A 1.5 1.5 0 0 1 761 1474 A 1.5 1.5 0 0 1 762.5 1472.5 Z " fill-rule="nonzero" fill="#797979" stroke="none" transform="matrix(6.12303176911189E-17 1 -1 6.12303176911189E-17 2145 803 )" />
    <path d="M 576 1474  L 760 1474  " stroke-width="2" stroke-dasharray="34,16" stroke="#797979" fill="none" transform="matrix(6.12303176911189E-17 1 -1 6.12303176911189E-17 2145 803 )" />
  </g>
</svg>