<?xml version="1.0" encoding="utf-8"?>
<svg version="1.1" xmlns:xlink="http://www.w3.org/1999/xlink" width="93px" height="22px" xmlns="http://www.w3.org/2000/svg">
  <g transform="matrix(1 0 0 1 -117 -1660 )">
    <path d="M 196.5 1667.5  A 3.5 3.5 0 0 0 193 1671 A 3.5 3.5 0 0 0 196.5 1674.5 A 3.5 3.5 0 0 0 200 1671 A 3.5 3.5 0 0 0 196.5 1667.5 Z M 196.5 1669.5  A 1.5 1.5 0 0 1 198 1671 A 1.5 1.5 0 0 1 196.5 1672.5 A 1.5 1.5 0 0 1 195 1671 A 1.5 1.5 0 0 1 196.5 1669.5 Z " fill-rule="nonzero" fill="#797979" stroke="none" />
    <path d="M 118 1671  L 194 1671  " stroke-width="2" stroke-dasharray="34,16" stroke="#797979" fill="none" />
  </g>
</svg>