<?xml version="1.0" encoding="utf-8"?>
<svg version="1.1" xmlns:xlink="http://www.w3.org/1999/xlink" width="86px" height="6px" preserveAspectRatio="xMinYMid meet" viewBox="116 1669  86 4" xmlns="http://www.w3.org/2000/svg">
  <g transform="matrix(0 -1 1 0 -1512 1830 )">
    <path d="M 196.5 1667.5  A 3.5 3.5 0 0 0 193 1671 A 3.5 3.5 0 0 0 196.5 1674.5 A 3.5 3.5 0 0 0 200 1671 A 3.5 3.5 0 0 0 196.5 1667.5 Z M 196.5 1669.5  A 1.5 1.5 0 0 1 198 1671 A 1.5 1.5 0 0 1 196.5 1672.5 A 1.5 1.5 0 0 1 195 1671 A 1.5 1.5 0 0 1 196.5 1669.5 Z " fill-rule="nonzero" fill="#797979" stroke="none" transform="matrix(6.12303176911189E-17 1 -1 6.12303176911189E-17 1830 1512 )" />
    <path d="M 118 1671  L 194 1671  " stroke-width="2" stroke-dasharray="34,16" stroke="#797979" fill="none" transform="matrix(6.12303176911189E-17 1 -1 6.12303176911189E-17 1830 1512 )" />
  </g>
</svg>