<?xml version="1.0" encoding="utf-8"?>
<svg version="1.1" xmlns:xlink="http://www.w3.org/1999/xlink" width="371px" height="22px" xmlns="http://www.w3.org/2000/svg">
  <g transform="matrix(1 0 0 1 -719 -1639 )">
    <path d="M 1076.5 1646.5  A 3.5 3.5 0 0 0 1073 1650 A 3.5 3.5 0 0 0 1076.5 1653.5 A 3.5 3.5 0 0 0 1080 1650 A 3.5 3.5 0 0 0 1076.5 1646.5 Z M 1076.5 1648.5  A 1.5 1.5 0 0 1 1078 1650 A 1.5 1.5 0 0 1 1076.5 1651.5 A 1.5 1.5 0 0 1 1075 1650 A 1.5 1.5 0 0 1 1076.5 1648.5 Z " fill-rule="nonzero" fill="#797979" stroke="none" />
    <path d="M 720 1650  L 1074 1650  " stroke-width="2" stroke-dasharray="34,16" stroke="#797979" fill="none" />
  </g>
</svg>