<?xml version="1.0" encoding="utf-8"?>
<svg version="1.1" xmlns:xlink="http://www.w3.org/1999/xlink" width="99px" height="22px" xmlns="http://www.w3.org/2000/svg">
  <g transform="matrix(1 0 0 1 -116 -2021 )">
    <path d="M 201.5 2028.5  A 3.5 3.5 0 0 0 198 2032 A 3.5 3.5 0 0 0 201.5 2035.5 A 3.5 3.5 0 0 0 205 2032 A 3.5 3.5 0 0 0 201.5 2028.5 Z M 201.5 2030.5  A 1.5 1.5 0 0 1 203 2032 A 1.5 1.5 0 0 1 201.5 2033.5 A 1.5 1.5 0 0 1 200 2032 A 1.5 1.5 0 0 1 201.5 2030.5 Z " fill-rule="nonzero" fill="#797979" stroke="none" />
    <path d="M 117 2032  L 199 2032  " stroke-width="2" stroke-dasharray="34,16" stroke="#797979" fill="none" />
  </g>
</svg>