<?xml version="1.0" encoding="utf-8"?>
<svg version="1.1" xmlns:xlink="http://www.w3.org/1999/xlink" width="4px" height="4px" preserveAspectRatio="xMinYMid meet" viewBox="600 1721  4 2" xmlns="http://www.w3.org/2000/svg">
  <path d="M 598.5 1717.5  A 3.5 3.5 0 0 0 595 1721 A 3.5 3.5 0 0 0 598.5 1724.5 A 3.5 3.5 0 0 0 602 1721 A 3.5 3.5 0 0 0 598.5 1717.5 Z M 598.5 1719.5  A 1.5 1.5 0 0 1 600 1721 A 1.5 1.5 0 0 1 598.5 1722.5 A 1.5 1.5 0 0 1 597 1721 A 1.5 1.5 0 0 1 598.5 1719.5 Z " fill-rule="nonzero" fill="#797979" stroke="none" transform="matrix(-1 1.22460635382238E-16 -1.22460635382238E-16 -1 1045 3442 )" />
  <path d="M 443 1721  L 596 1721  " stroke-width="2" stroke-dasharray="34,16" stroke="#797979" fill="none" transform="matrix(-1 1.22460635382238E-16 -1.22460635382238E-16 -1 1045 3442 )" />
</svg>