<?xml version="1.0" encoding="utf-8"?>
<svg version="1.1" xmlns:xlink="http://www.w3.org/1999/xlink" width="24px" height="22.0000000019004px" preserveAspectRatio="xMinYMid meet" viewBox="660 3027  24 20.0000000019004" xmlns="http://www.w3.org/2000/svg">
  <g transform="matrix(0 1 -1 0 3709.00000000095 2365.00000000095 )">
    <path d="M 746.5 2959.5  A 3.5 3.5 0 0 0 743 2963 A 3.5 3.5 0 0 0 746.5 2966.5 A 3.5 3.5 0 0 0 750 2963 A 3.5 3.5 0 0 0 746.5 2959.5 Z M 746.5 2961.5  A 1.5 1.5 0 0 1 748 2963 A 1.5 1.5 0 0 1 746.5 2964.5 A 1.5 1.5 0 0 1 745 2963 A 1.5 1.5 0 0 1 746.5 2961.5 Z " fill-rule="nonzero" fill="#797979" stroke="none" transform="matrix(6.12303176911189E-17 1 -1 6.12303176911189E-17 3635 2291 )" />
    <path d="M 594 2963  L 744 2963  " stroke-width="2" stroke-dasharray="34,16" stroke="#797979" fill="none" transform="matrix(6.12303176911189E-17 1 -1 6.12303176911189E-17 3635 2291 )" />
  </g>
</svg>