<?xml version="1.0" encoding="utf-8"?>
<svg version="1.1" xmlns:xlink="http://www.w3.org/1999/xlink" width="24px" height="24.0000000015184px" preserveAspectRatio="xMidYMin meet" viewBox="149 3297.99999999848  22 24.0000000015184" xmlns="http://www.w3.org/2000/svg">
  <g transform="matrix(0 1 -1 0 3469.99999999924 3149.99999999924 )">
    <path d="M 199.5 3267.5  A 3.5 3.5 0 0 0 196 3271 A 3.5 3.5 0 0 0 199.5 3274.5 A 3.5 3.5 0 0 0 203 3271 A 3.5 3.5 0 0 0 199.5 3267.5 Z M 199.5 3269.5  A 1.5 1.5 0 0 1 201 3271 A 1.5 1.5 0 0 1 199.5 3272.5 A 1.5 1.5 0 0 1 198 3271 A 1.5 1.5 0 0 1 199.5 3269.5 Z " fill-rule="nonzero" fill="#797979" stroke="none" transform="matrix(6.12303176911189E-17 1 -1 6.12303176911189E-17 3431 3111 )" />
    <path d="M 117 3271  L 197 3271  " stroke-width="2" stroke-dasharray="34,16" stroke="#797979" fill="none" transform="matrix(6.12303176911189E-17 1 -1 6.12303176911189E-17 3431 3111 )" />
  </g>
</svg>