<?xml version="1.0" encoding="utf-8"?>
<svg version="1.1" xmlns:xlink="http://www.w3.org/1999/xlink" width="4px" height="4px" preserveAspectRatio="xMinYMid meet" viewBox="60 1569  4 2" xmlns="http://www.w3.org/2000/svg">
  <path d="M 45.9671814671815 1481  L 0 1481  L 0 6.62331903975208  " stroke-width="2" stroke-dasharray="34,16" stroke="#797979" fill="none" transform="matrix(1 0 0 1 16 88 )" />
  <path d="M 0 0.623311211146074  C -1.93299662440778 0.623311211146074  -3.5 2.1903145867383  -3.5 4.12331121114607  C -3.5 6.05630783555385  -1.93299662440778 7.62331121114607  0 7.62331121114607  C 1.93299662440778 7.62331121114607  3.5 6.05630783555385  3.5 4.12331121114607  C 3.5 2.1903145867383  1.93299662440778 0.623311211146074  0 0.623311211146074  Z M 0 2.62331121114607  C 0.82842712474619 2.62331121114607  1.5 3.29488408639988  1.5 4.12331121114607  C 1.5 4.95173833589226  0.82842712474619 5.62331121114607  0 5.62331121114607  C -0.82842712474619 5.62331121114607  -1.5 4.95173833589226  -1.5 4.12331121114607  C -1.5 3.29488408639988  -0.82842712474619 2.62331121114607  0 2.62331121114607  Z " fill-rule="nonzero" fill="#797979" stroke="none" transform="matrix(1 0 0 1 16 88 )" />
</svg>