<?xml version="1.0" encoding="utf-8"?>
<svg version="1.1" xmlns:xlink="http://www.w3.org/1999/xlink" width="870px" height="6px" preserveAspectRatio="xMinYMid meet" viewBox="-210 867  870 4" xmlns="http://www.w3.org/2000/svg">
  <g transform="matrix(0 1 -1 0 1094 644 )">
    <path d="M 975.303676347154 864  L 1 864  L 1 6.36382214140437  " stroke-width="2" stroke-dasharray="34,16" stroke="#797979" fill="none" transform="matrix(1 0 0 1 224 436 )" />
    <path d="M 1 0.363803589374811  C -0.932996624407777 0.363803589374811  -2.5 1.93080696496703  -2.5 3.86380358937481  C -2.5 5.79680021378259  -0.932996624407777 7.36380358937481  1 7.36380358937481  C 2.93299662440778 7.36380358937481  4.5 5.79680021378259  4.5 3.86380358937481  C 4.5 1.93080696496703  2.93299662440778 0.363803589374811  1 0.363803589374811  Z M 1 2.36380358937481  C 1.82842712474619 2.36380358937481  2.5 3.03537646462862  2.5 3.86380358937481  C 2.5 4.692230714121  1.82842712474619 5.36380358937481  1 5.36380358937481  C 0.17157287525381 5.36380358937481  -0.5 4.692230714121  -0.5 3.86380358937481  C -0.5 3.03537646462862  0.17157287525381 2.36380358937481  1 2.36380358937481  Z " fill-rule="nonzero" fill="#797979" stroke="none" transform="matrix(1 0 0 1 224 436 )" />
  </g>
</svg>