<?xml version="1.0" encoding="utf-8"?>
<svg version="1.1" xmlns:xlink="http://www.w3.org/1999/xlink" width="358px" height="4px" preserveAspectRatio="xMinYMid meet" viewBox="60 1325  358 2" xmlns="http://www.w3.org/2000/svg">
  <g transform="matrix(-1 0 0 -1 478 2652 )">
    <path d="M 352.748153432936 890  L 1 890  L 1 6.37474505712687  " stroke-width="2" stroke-dasharray="34,16" stroke="#797979" fill="none" transform="matrix(1 0 0 1 62 436 )" />
    <path d="M 1 0.374752133476136  C -0.932996624407777 0.374752133476136  -2.5 1.94175550906836  -2.5 3.87475213347614  C -2.5 5.80774875788391  -0.932996624407777 7.37475213347614  1 7.37475213347614  C 2.93299662440778 7.37475213347614  4.5 5.80774875788391  4.5 3.87475213347614  C 4.5 1.94175550906836  2.93299662440778 0.374752133476136  1 0.374752133476136  Z M 1 2.37475213347614  C 1.82842712474619 2.37475213347614  2.5 3.04632500872995  2.5 3.87475213347614  C 2.5 4.70317925822233  1.82842712474619 5.37475213347614  1 5.37475213347614  C 0.17157287525381 5.37475213347614  -0.5 4.70317925822233  -0.5 3.87475213347614  C -0.5 3.04632500872995  0.17157287525381 2.37475213347614  1 2.37475213347614  Z " fill-rule="nonzero" fill="#797979" stroke="none" transform="matrix(1 0 0 1 62 436 )" />
  </g>
</svg>