<?xml version="1.0" encoding="utf-8"?>
<svg version="1.1" xmlns:xlink="http://www.w3.org/1999/xlink" width="170px" height="6px" preserveAspectRatio="xMinYMid meet" viewBox="94 2059  170 4" xmlns="http://www.w3.org/2000/svg">
  <g transform="matrix(0 -1 1 0 -1882 2240 )">
    <path d="M 258.5 2057.5  A 3.5 3.5 0 0 0 255 2061 A 3.5 3.5 0 0 0 258.5 2064.5 A 3.5 3.5 0 0 0 262 2061 A 3.5 3.5 0 0 0 258.5 2057.5 Z M 258.5 2059.5  A 1.5 1.5 0 0 1 260 2061 A 1.5 1.5 0 0 1 258.5 2062.5 A 1.5 1.5 0 0 1 257 2061 A 1.5 1.5 0 0 1 258.5 2059.5 Z " fill-rule="nonzero" fill="#797979" stroke="none" transform="matrix(6.12303176911189E-17 1 -1 6.12303176911189E-17 2240 1882 )" />
    <path d="M 96 2061  L 256 2061  " stroke-width="2" stroke-dasharray="34,16" stroke="#797979" fill="none" transform="matrix(6.12303176911189E-17 1 -1 6.12303176911189E-17 2240 1882 )" />
  </g>
</svg>