<?xml version="1.0" encoding="utf-8"?>
<svg version="1.1" xmlns:xlink="http://www.w3.org/1999/xlink" width="170px" height="4px" preserveAspectRatio="xMinYMid meet" viewBox="268 1965  170 2" xmlns="http://www.w3.org/2000/svg">
  <g transform="matrix(0 -1 1 0 -1613 2319 )">
    <path d="M 432.5 1962.5  A 3.5 3.5 0 0 0 429 1966 A 3.5 3.5 0 0 0 432.5 1969.5 A 3.5 3.5 0 0 0 436 1966 A 3.5 3.5 0 0 0 432.5 1962.5 Z M 432.5 1964.5  A 1.5 1.5 0 0 1 434 1966 A 1.5 1.5 0 0 1 432.5 1967.5 A 1.5 1.5 0 0 1 431 1966 A 1.5 1.5 0 0 1 432.5 1964.5 Z " fill-rule="nonzero" fill="#797979" stroke="none" transform="matrix(6.12303176911189E-17 1 -1 6.12303176911189E-17 2319 1613 )" />
    <path d="M 270 1966  L 430 1966  " stroke-width="2" stroke-dasharray="34,16" stroke="#797979" fill="none" transform="matrix(6.12303176911189E-17 1 -1 6.12303176911189E-17 2319 1613 )" />
  </g>
</svg>