<?xml version="1.0" encoding="utf-8"?>
<svg version="1.1" xmlns:xlink="http://www.w3.org/1999/xlink" width="4px" height="4px" preserveAspectRatio="xMinYMid meet" viewBox="160 2501  4 2" xmlns="http://www.w3.org/2000/svg">
  <path d="M 200.5 2540.5  A 3.5 3.5 0 0 0 197 2544 A 3.5 3.5 0 0 0 200.5 2547.5 A 3.5 3.5 0 0 0 204 2544 A 3.5 3.5 0 0 0 200.5 2540.5 Z M 200.5 2542.5  A 1.5 1.5 0 0 1 202 2544 A 1.5 1.5 0 0 1 200.5 2545.5 A 1.5 1.5 0 0 1 199 2544 A 1.5 1.5 0 0 1 200.5 2542.5 Z " fill-rule="nonzero" fill="#797979" stroke="none" transform="matrix(6.12303176911189E-17 1 -1 6.12303176911189E-17 2706 2382 )" />
  <path d="M 120 2544  L 198 2544  " stroke-width="2" stroke-dasharray="34,16" stroke="#797979" fill="none" transform="matrix(6.12303176911189E-17 1 -1 6.12303176911189E-17 2706 2382 )" />
</svg>