<?xml version="1.0" encoding="utf-8"?>
<svg version="1.1" xmlns:xlink="http://www.w3.org/1999/xlink" width="4px" height="4px" preserveAspectRatio="xMinYMid meet" viewBox="352 2147  4 2" xmlns="http://www.w3.org/2000/svg">
  <path d="M 444.5 2239.5  A 3.5 3.5 0 0 0 441 2243 A 3.5 3.5 0 0 0 444.5 2246.5 A 3.5 3.5 0 0 0 448 2243 A 3.5 3.5 0 0 0 444.5 2239.5 Z M 444.5 2241.5  A 1.5 1.5 0 0 1 446 2243 A 1.5 1.5 0 0 1 444.5 2244.5 A 1.5 1.5 0 0 1 443 2243 A 1.5 1.5 0 0 1 444.5 2241.5 Z " fill-rule="nonzero" fill="#797979" stroke="none" transform="matrix(6.12303176911189E-17 1 -1 6.12303176911189E-17 2596 1890 )" />
  <path d="M 258 2243  L 442 2243  " stroke-width="2" stroke-dasharray="34,16" stroke="#797979" fill="none" transform="matrix(6.12303176911189E-17 1 -1 6.12303176911189E-17 2596 1890 )" />
</svg>