<?xml version="1.0" encoding="utf-8"?>
<svg version="1.1" xmlns:xlink="http://www.w3.org/1999/xlink" width="4px" height="4px" preserveAspectRatio="xMinYMid meet" viewBox="178 2243  4 2" xmlns="http://www.w3.org/2000/svg">
  <path d="M 270.5 2334.5  A 3.5 3.5 0 0 0 267 2338 A 3.5 3.5 0 0 0 270.5 2341.5 A 3.5 3.5 0 0 0 274 2338 A 3.5 3.5 0 0 0 270.5 2334.5 Z M 270.5 2336.5  A 1.5 1.5 0 0 1 272 2338 A 1.5 1.5 0 0 1 270.5 2339.5 A 1.5 1.5 0 0 1 269 2338 A 1.5 1.5 0 0 1 270.5 2336.5 Z " fill-rule="nonzero" fill="#797979" stroke="none" transform="matrix(6.12303176911189E-17 1 -1 6.12303176911189E-17 2517 2159 )" />
  <path d="M 84 2338  L 268 2338  " stroke-width="2" stroke-dasharray="34,16" stroke="#797979" fill="none" transform="matrix(6.12303176911189E-17 1 -1 6.12303176911189E-17 2517 2159 )" />
</svg>