<?xml version="1.0" encoding="utf-8"?>
<svg version="1.1" xmlns:xlink="http://www.w3.org/1999/xlink" width="225px" height="635px" xmlns="http://www.w3.org/2000/svg">
  <g transform="matrix(1 0 0 1 -701 -1678 )">
    <path d="M 0.615138933248146 0.0265204641080978  C 0.615138933248146 619.279357388754  0.615138933248146 623  0.615138933248146 623  L 207.635473215296 623  " stroke-width="2" stroke-dasharray="34,16" stroke="#797979" fill="none" transform="matrix(1 0 0 1 702 1679 )" />
    <path d="M 210.135473043304 619.5  C 208.202476418896 619.5  206.635473043304 621.067003375592  206.635473043304 623  C 206.635473043304 624.932996624408  208.202476418896 626.5  210.135473043304 626.5  C 212.068469667712 626.5  213.635473043304 624.932996624408  213.635473043304 623  C 213.635473043304 621.067003375592  212.068469667712 619.5  210.135473043304 619.5  Z M 210.135473043304 621.5  C 210.96390016805 621.5  211.635473043304 622.171572875254  211.635473043304 623  C 211.635473043304 623.828427124746  210.96390016805 624.5  210.135473043304 624.5  C 209.307045918558 624.5  208.635473043304 623.828427124746  208.635473043304 623  C 208.635473043304 622.171572875254  209.307045918558 621.5  210.135473043304 621.5  Z " fill-rule="nonzero" fill="#797979" stroke="none" transform="matrix(1 0 0 1 702 1679 )" />
  </g>
</svg>