<?xml version="1.0" encoding="utf-8"?>
<svg version="1.1" xmlns:xlink="http://www.w3.org/1999/xlink" width="743px" height="59px" xmlns="http://www.w3.org/2000/svg">
  <g transform="matrix(1 0 0 1 87 -2085 )">
    <path d="M 2.10412008942824 0.00204003570062291  C 2.10412008942824 47.6368736452888  2.10412008942824 48  2.10412008942824 48  L 724.753122094704 48  " stroke-width="2" stroke-dasharray="34,16" stroke="#797979" fill="none" transform="matrix(1 0 0 1 -86 2086 )" />
    <path d="M 727.25311395503 44.5  C 725.320117330622 44.5  723.75311395503 46.0670033755922  723.75311395503 48  C 723.75311395503 49.9329966244078  725.320117330622 51.5  727.25311395503 51.5  C 729.186110579438 51.5  730.75311395503 49.9329966244078  730.75311395503 48  C 730.75311395503 46.0670033755922  729.186110579438 44.5  727.25311395503 44.5  Z M 727.25311395503 46.5  C 728.081541079776 46.5  728.75311395503 47.1715728752538  728.75311395503 48  C 728.75311395503 48.8284271247462  728.081541079776 49.5  727.25311395503 49.5  C 726.424686830284 49.5  725.75311395503 48.8284271247462  725.75311395503 48  C 725.75311395503 47.1715728752538  726.424686830284 46.5  727.25311395503 46.5  Z " fill-rule="nonzero" fill="#797979" stroke="none" transform="matrix(1 0 0 1 -86 2086 )" />
  </g>
</svg>