<?xml version="1.0" encoding="utf-8"?>
<svg version="1.1" xmlns:xlink="http://www.w3.org/1999/xlink" width="277px" height="356px" xmlns="http://www.w3.org/2000/svg">
  <g transform="matrix(1 0 0 1 -366 -1888 )">
    <path d="M 0.764611945065452 0.0146627565982271  C 0.764611945065452 342.390029325513  0.764611945065452 344  0.764611945065452 344  L 259.54689659784 344  " stroke-width="2" stroke-dasharray="34,16" stroke="#797979" fill="none" transform="matrix(1 0 0 1 367 1889 )" />
    <path d="M 262.046896611414 340.5  C 260.113899987006 340.5  258.546896611414 342.067003375592  258.546896611414 344  C 258.546896611414 345.932996624408  260.113899987006 347.5  262.046896611414 347.5  C 263.979893235822 347.5  265.546896611414 345.932996624408  265.546896611414 344  C 265.546896611414 342.067003375592  263.979893235822 340.5  262.046896611414 340.5  Z M 262.046896611414 342.5  C 262.87532373616 342.5  263.546896611414 343.171572875254  263.546896611414 344  C 263.546896611414 344.828427124746  262.87532373616 345.5  262.046896611414 345.5  C 261.218469486668 345.5  260.546896611414 344.828427124746  260.546896611414 344  C 260.546896611414 343.171572875254  261.218469486668 342.5  262.046896611414 342.5  Z " fill-rule="nonzero" fill="#797979" stroke="none" transform="matrix(1 0 0 1 367 1889 )" />
  </g>
</svg>