<?xml version="1.0" encoding="utf-8"?>
<svg version="1.1" xmlns:xlink="http://www.w3.org/1999/xlink" width="4px" height="4px" preserveAspectRatio="xMinYMid meet" viewBox="304 2593  4 2" xmlns="http://www.w3.org/2000/svg">
  <path d="M 540.5 2590.5  A 3.5 3.5 0 0 0 537 2594 A 3.5 3.5 0 0 0 540.5 2597.5 A 3.5 3.5 0 0 0 544 2594 A 3.5 3.5 0 0 0 540.5 2590.5 Z M 540.5 2592.5  A 1.5 1.5 0 0 1 542 2594 A 1.5 1.5 0 0 1 540.5 2595.5 A 1.5 1.5 0 0 1 539 2594 A 1.5 1.5 0 0 1 540.5 2592.5 Z " fill-rule="nonzero" fill="#797979" stroke="none" />
  <path d="M 305 2594  L 538 2594  " stroke-width="2" stroke-dasharray="34,16" stroke="#797979" fill="none" />
</svg>