<?xml version="1.0" encoding="utf-8"?>
<svg version="1.1" xmlns:xlink="http://www.w3.org/1999/xlink" width="84px" height="6px" preserveAspectRatio="xMinYMid meet" viewBox="118 2903  84 4" xmlns="http://www.w3.org/2000/svg">
  <g transform="matrix(0 -1 1 0 -2745 3065 )">
    <path d="M 196.5 2901.5  A 3.5 3.5 0 0 0 193 2905 A 3.5 3.5 0 0 0 196.5 2908.5 A 3.5 3.5 0 0 0 200 2905 A 3.5 3.5 0 0 0 196.5 2901.5 Z M 196.5 2903.5  A 1.5 1.5 0 0 1 198 2905 A 1.5 1.5 0 0 1 196.5 2906.5 A 1.5 1.5 0 0 1 195 2905 A 1.5 1.5 0 0 1 196.5 2903.5 Z " fill-rule="nonzero" fill="#797979" stroke="none" transform="matrix(6.12303176911189E-17 1 -1 6.12303176911189E-17 3065 2745 )" />
    <path d="M 120 2905  L 194 2905  " stroke-width="2" stroke-dasharray="34,16" stroke="#797979" fill="none" transform="matrix(6.12303176911189E-17 1 -1 6.12303176911189E-17 3065 2745 )" />
  </g>
</svg>