<?xml version="1.0" encoding="utf-8"?>
<svg version="1.1" xmlns:xlink="http://www.w3.org/1999/xlink" width="24px" height="24px" preserveAspectRatio="xMinYMid meet" viewBox="1064 2429  24 22" xmlns="http://www.w3.org/2000/svg">
  <g transform="matrix(-1 0 0 -1 2152 4880 )">
    <path d="M 1076.5 2436.5  A 3.5 3.5 0 0 0 1073 2440 A 3.5 3.5 0 0 0 1076.5 2443.5 A 3.5 3.5 0 0 0 1080 2440 A 3.5 3.5 0 0 0 1076.5 2436.5 Z M 1076.5 2438.5  A 1.5 1.5 0 0 1 1078 2440 A 1.5 1.5 0 0 1 1076.5 2441.5 A 1.5 1.5 0 0 1 1075 2440 A 1.5 1.5 0 0 1 1076.5 2438.5 Z " fill-rule="nonzero" fill="#797979" stroke="none" />
    <path d="M 497 2440  L 1074 2440  " stroke-width="2" stroke-dasharray="34,16" stroke="#797979" fill="none" />
  </g>
</svg>