<?xml version="1.0" encoding="utf-8"?>
<svg version="1.1" xmlns:xlink="http://www.w3.org/1999/xlink" width="181px" height="22px" xmlns="http://www.w3.org/2000/svg">
  <g transform="matrix(1 0 0 1 -373 -3138 )">
    <path d="M 540.5 3145.5  A 3.5 3.5 0 0 0 537 3149 A 3.5 3.5 0 0 0 540.5 3152.5 A 3.5 3.5 0 0 0 544 3149 A 3.5 3.5 0 0 0 540.5 3145.5 Z M 540.5 3147.5  A 1.5 1.5 0 0 1 542 3149 A 1.5 1.5 0 0 1 540.5 3150.5 A 1.5 1.5 0 0 1 539 3149 A 1.5 1.5 0 0 1 540.5 3147.5 Z " fill-rule="nonzero" fill="#797979" stroke="none" />
    <path d="M 374 3149  L 538 3149  " stroke-width="2" stroke-dasharray="34,16" stroke="#797979" fill="none" />
  </g>
</svg>