<?xml version="1.0" encoding="utf-8"?>
<svg version="1.1" xmlns:xlink="http://www.w3.org/1999/xlink" width="86px" height="4px" preserveAspectRatio="xMinYMid meet" viewBox="116 3639  86 2" xmlns="http://www.w3.org/2000/svg">
  <g transform="matrix(0 -1 1 0 -3481 3799 )">
    <path d="M 195.5 3636.5  A 3.5 3.5 0 0 0 192 3640 A 3.5 3.5 0 0 0 195.5 3643.5 A 3.5 3.5 0 0 0 199 3640 A 3.5 3.5 0 0 0 195.5 3636.5 Z M 195.5 3638.5  A 1.5 1.5 0 0 1 197 3640 A 1.5 1.5 0 0 1 195.5 3641.5 A 1.5 1.5 0 0 1 194 3640 A 1.5 1.5 0 0 1 195.5 3638.5 Z " fill-rule="nonzero" fill="#797979" stroke="none" transform="matrix(6.12303176911189E-17 1 -1 6.12303176911189E-17 3799 3481 )" />
    <path d="M 119 3640  L 193 3640  " stroke-width="2" stroke-dasharray="34,16" stroke="#797979" fill="none" transform="matrix(6.12303176911189E-17 1 -1 6.12303176911189E-17 3799 3481 )" />
  </g>
</svg>