<?xml version="1.0" encoding="utf-8"?>
<svg version="1.1" xmlns:xlink="http://www.w3.org/1999/xlink" width="24px" height="24px" preserveAspectRatio="xMinYMid meet" viewBox="712 2913  24 22" xmlns="http://www.w3.org/2000/svg">
  <path d="M 1076.5 2920.5  A 3.5 3.5 0 0 0 1073 2924 A 3.5 3.5 0 0 0 1076.5 2927.5 A 3.5 3.5 0 0 0 1080 2924 A 3.5 3.5 0 0 0 1076.5 2920.5 Z M 1076.5 2922.5  A 1.5 1.5 0 0 1 1078 2924 A 1.5 1.5 0 0 1 1076.5 2925.5 A 1.5 1.5 0 0 1 1075 2924 A 1.5 1.5 0 0 1 1076.5 2922.5 Z " fill-rule="nonzero" fill="#797979" stroke="none" transform="matrix(-1 1.22460635382238E-16 -1.22460635382238E-16 -1 1800 5848 )" />
  <path d="M 720 2924  L 1074 2924  " stroke-width="2" stroke-dasharray="34,16" stroke="#797979" fill="none" transform="matrix(-1 1.22460635382238E-16 -1.22460635382238E-16 -1 1800 5848 )" />
</svg>